<svg width="19" height="16" xmlns="http://www.w3.org/2000/svg">
 <!-- Created with Method Draw - http://github.com/duopixel/Method-Draw/ -->

 <g>
  <title>background</title>
  <rect x="-1" y="-1" width="21" height="18" id="canvas_background" fill="none"/>
  <g id="canvasGrid" display="none">
   <rect id="svg_1" width="100%" height="100%" x="0" y="0" stroke-width="0" fill="url(#gridpattern)"/>
  </g>
 </g>
 <g>
  <title>Layer 1</title>
  <path stroke="#ffffff" fill="#fff" stroke-width="0" fill-opacity="null" d="m12.48961,11.78045c-0.68704,-0.29664 -0.96138,-1.11193 -0.96138,-1.11193s-0.30953,0.18467 -0.30953,-0.33398s0.30953,0.33398 0.61907,-1.66855c0,0 0.8582,-0.25997 0.68704,-2.40984l-0.20636,0c0,0 0.51528,-2.29851 0,-3.07713c-0.51589,-0.77861 -0.72164,-1.29726 -1.85599,-1.66855s-0.72103,-0.29731 -1.54585,-0.25932c-0.82482,0.03732 -1.51247,0.51864 -1.51247,0.77796c0,0 -0.51528,0.03732 -0.72103,0.25997c-0.20636,0.22265 -0.54988,1.25992 -0.54988,1.51991s0.17176,2.00252 0.34352,2.37317l-0.20454,0.07399c-0.17176,2.14986 0.68704,2.40984 0.68704,2.40984c0.30893,2.00252 0.61846,1.14991 0.61846,1.66855s-0.30953,0.33398 -0.30953,0.33398s-0.27433,0.81528 -0.96138,1.11193c-0.68704,0.29599 -4.50098,1.88989 -4.81113,2.22387c-0.31014,0.33463 -0.27494,1.89119 -0.27494,1.89119l16.35491,0c0,0 0.03581,-1.55658 -0.27433,-1.89119c-0.31075,-0.33398 -4.12469,-1.92786 -4.81173,-2.22387l0.00003,0zm-7.5684,-0.11263c-0.06009,-0.11787 -0.08983,-0.20301 -0.08983,-0.20301s-0.26219,0.15651 -0.26219,-0.28289s0.26219,0.28289 0.52439,-1.41381c0,0 0.72771,-0.22003 0.58204,-2.04247l-0.1748,0c0,0 0.08679,-0.38702 0.14384,-0.87357c-0.00243,-0.20169 0.00364,-0.41648 0.02246,-0.65223l0.02306,-0.27897c-0.01275,-0.32218 -0.06494,-0.6149 -0.18936,-0.80285c-0.43699,-0.65943 -0.61178,-1.09949 -1.57255,-1.41381c-0.96077,-0.31433 -0.61178,-0.25211 -1.31036,-0.22003c-0.69918,0.03143 -1.28183,0.4394 -1.28183,0.66008c0,0 -0.43699,0.03143 -0.61178,0.22003c-0.16448,0.17747 -0.42788,0.95739 -0.45945,1.23439l0,0.18401c0.02853,0.42761 0.15659,1.60373 0.28465,1.88072l-0.17358,0.06287c-0.14506,1.82244 0.58204,2.04247 0.58204,2.04247c0.26219,1.69671 0.52439,0.97441 0.52439,1.41381s-0.26219,0.28289 -0.26219,0.28289s-0.23245,0.69217 -0.81511,0.94233c-0.03702,0.01572 -0.08436,0.03667 -0.14081,0.06025l0,3.42747l0.34898,0c-0.0176,-0.8369 0.04673,-1.91673 0.45277,-2.35352c0.21607,-0.23247 0.92435,-0.6149 3.85521,-1.87417l0.00001,0.00003zm13.55272,-5.9303c-0.02428,-0.24754 -0.07708,-0.46822 -0.17722,-0.61949c-0.43638,-0.66008 -0.61178,-1.09949 -1.57195,-1.41381c-0.96138,-0.31433 -0.61178,-0.25211 -1.31097,-0.22003c-0.69858,0.03143 -1.28123,0.4394 -1.28123,0.66008c0,0 -0.43638,0.03143 -0.61178,0.22003c-0.16448,0.17812 -0.43031,0.96393 -0.46005,1.23832l0.02003,0l0.04855,0.59787c0.01214,0.15127 0.01335,0.28551 0.01639,0.42237c0.05462,0.43613 0.12746,0.88405 0.20029,1.04056l-0.17358,0.06287c-0.14506,1.82244 0.58265,2.04247 0.58265,2.04247c0.26219,1.69671 0.52378,0.97441 0.52378,1.41381s-0.26219,0.28289 -0.26219,0.28289s-0.03217,0.09299 -0.09893,0.22134c2.89505,1.24421 3.59727,1.62402 3.81091,1.85584c0.40664,0.43678 0.47037,1.51597 0.45277,2.35352l0.29133,0l0,-3.47461c-0.00971,-0.00394 -0.02306,-0.00983 -0.03156,-0.01375c-0.58204,-0.25081 -0.81511,-0.94233 -0.81511,-0.94233s-0.2628,0.15651 -0.2628,-0.28289s0.2628,0.28289 0.52439,-1.41381c0,0 0.48797,-0.14996 0.58447,-1.20558l0,-0.8035c-0.00061,-0.01179 -0.00061,-0.02161 -0.00182,-0.0334l-0.1754,0c0,0 0.13049,-0.58282 0.17722,-1.21868l0,-0.7701l0.00182,0l-0.00001,0.00001z" id="svg_11"/>
 </g>
</svg>